<svg xmlns="http://www.w3.org/2000/svg" width="130" height="148" viewBox="0 0 130 148"><path d="M22 33 L99 27 L111 122 L31 128 Z" fill="#DDE4D7"/><path d="M42 12 L104 20 L98 99 L34 91 Z" fill="#FFFCF7" stroke="#845645" stroke-width="1.5"/><path d="M42 12 L56 14 L54 24 L40 22 Z" fill="#E7D6BD"/><g fill="none" stroke="#845645" stroke-width="1.4" stroke-linecap="round"><path d="M52 36 L90 41 M50 45 L79 49 M47 69 L88 74 M47 78 L71 81"/><path d="M21 62 L66 59 L75 72 L113 69 L116 124 L26 130 Z" fill="#FFFCF7"/><path d="M27 78 L108 73 M31 116 L110 110"/><path d="M42 92 L64 90 L65 102 L43 104 Z"/><path d="M80 96 L86 96 M91 95 L97 95"/><path d="M8 133 C30 137 53 134 74 135 C93 136 109 130 122 133" stroke="#D9CCBB"/></g><path d="M80 105 L105 102 L106 110 L82 113 Z" fill="#E8D1C8"/><g fill="none" stroke="#7B8F72" stroke-width="1.4" stroke-linecap="round"><path d="M112 57 C114 46 117 43 122 38 M118 47 C109 48 107 43 108 39 C114 37 118 39 118 47 M118 46 C125 46 128 41 126 36 C120 35 117 39 118 46"/></g></svg>