<svg xmlns="http://www.w3.org/2000/svg" aria-hidden="true">
  <symbol id="digital" viewBox="0 0 24 24" fill="none" stroke="currentColor" stroke-width="1.7" stroke-linecap="round" stroke-linejoin="round">
    <rect x="4" y="4" width="16" height="12" rx="1.5"/>
    <path d="M2.5 19h19l-1.5 1H4zM10 18h4"/>
  </symbol>
  <symbol id="home" viewBox="0 0 24 24" fill="none" stroke="currentColor" stroke-width="1.7" stroke-linecap="round" stroke-linejoin="round">
    <path d="m3 10 9-7 9 7v10H3zM9 20v-7h6v7"/>
  </symbol>
  <symbol id="daily" viewBox="0 0 24 24" fill="none" stroke="currentColor" stroke-width="1.7" stroke-linecap="round" stroke-linejoin="round">
    <path d="M3 12a9 9 0 0 1 18 0c-1.5-1.2-3-1.2-4.5 0-1.5-1.2-3-1.2-4.5 0-1.5-1.2-3-1.2-4.5 0C6 10.8 4.5 10.8 3 12ZM12 3v15a3 3 0 0 0 6 0"/>
  </symbol>
  <symbol id="clothing" viewBox="0 0 24 24" fill="none" stroke="currentColor" stroke-width="1.7" stroke-linecap="round" stroke-linejoin="round">
    <path d="M12 8V6a2 2 0 1 1 2 2c-1.1.4-2 1.2-2 2v1l9 6v2H3v-2l9-6"/>
  </symbol>
  <symbol id="books" viewBox="0 0 24 24" fill="none" stroke="currentColor" stroke-width="1.7" stroke-linecap="round" stroke-linejoin="round">
    <path d="M12 5c-2.7-1.6-5.7-1.8-9-1v15c3.3-.8 6.3-.6 9 1 2.7-1.6 5.7-1.8 9-1V4c-3.3-.8-6.3-.6-9 1Zm0 0v15M5.5 8c1.6-.2 3.1 0 4.5.6M14 8.6c1.4-.6 2.9-.8 4.5-.6"/>
  </symbol>
  <symbol id="mobility" viewBox="0 0 24 24" fill="none" stroke="currentColor" stroke-width="1.7" stroke-linecap="round" stroke-linejoin="round">
    <circle cx="5.5" cy="17" r="3"/><circle cx="18.5" cy="17" r="3"/>
    <path d="m5.5 17 4-8 4 8h-8m8 0 3-8h-3m2-2h3M8 7h3"/>
  </symbol>
  <symbol id="sports" viewBox="0 0 24 24" fill="none" stroke="currentColor" stroke-width="1.7" stroke-linecap="round" stroke-linejoin="round">
    <circle cx="12" cy="12" r="9"/><path d="m12 6 3 2 1 4-4 3-4-3 1-4 3-2Zm-3 2L5 7m10 1 4-1m-3 5 4 3m-8 0v6m-4-9-4 3"/>
  </symbol>
  <symbol id="tools" viewBox="0 0 24 24" fill="none" stroke="currentColor" stroke-width="1.7" stroke-linecap="round" stroke-linejoin="round">
    <path d="M20 7a5 5 0 0 1-6 6l-8 8-3-3 8-8a5 5 0 0 1 6-6l-3 3 3 3z"/>
  </symbol>
  <symbol id="other" viewBox="0 0 24 24" fill="none" stroke="currentColor" stroke-width="1.7" stroke-linecap="round" stroke-linejoin="round">
    <path d="m3 7 9-4 9 4v10l-9 4-9-4zM3 7l9 4 9-4m-9 4v10M7.5 5l9 4"/>
  </symbol>
  <symbol id="headphones" viewBox="0 0 24 24" fill="none" stroke="currentColor" stroke-width="1.6" stroke-linecap="round" stroke-linejoin="round"><path d="M4 13V11a8 8 0 0 1 16 0v2M4 10V9a8 8 0 0 1 16 0v1"/><rect x="3" y="11" width="4" height="9" rx="2"/><rect x="17" y="11" width="4" height="9" rx="2"/></symbol>
  <symbol id="keyboard" viewBox="0 0 24 24" fill="none" stroke="currentColor" stroke-width="1.5" stroke-linecap="round" stroke-linejoin="round"><rect x="2" y="6" width="20" height="13" rx="2"/><path d="M5 10h1m3 0h1m3 0h1m3 0h2M5 13h1m3 0h1m3 0h1m3 0h2M6 16h1m3 0h8"/></symbol>
  <symbol id="sun" viewBox="0 0 24 24" fill="none" stroke="currentColor" stroke-width="1.6" stroke-linecap="round"><circle cx="12" cy="12" r="4"/><path d="M12 2v2m0 16v2M2 12h2m16 0h2M5 5l1.5 1.5m11 11L19 19M5 19l1.5-1.5m11-11L19 5"/></symbol>
  <symbol id="spark" viewBox="0 0 24 24" fill="none" stroke="currentColor" stroke-width="1.6" stroke-linecap="round" stroke-linejoin="round"><path d="M12 2c0 7-3 10-10 10 7 0 10 3 10 10 0-7 3-10 10-10-7 0-10-3-10-10Z"/></symbol>
  <symbol id="sprout" viewBox="0 0 24 24" fill="none" stroke="currentColor" stroke-width="1.5" stroke-linecap="round" stroke-linejoin="round"><path d="M12 22V12C4 12 2 8 3 3c8 0 11 4 9 9ZM12 17c-1-7 2-10 9-10 0 6-3 10-9 10ZM7 7l5 5m0 5 5-6"/></symbol>
</svg>
