<svg xmlns="http://www.w3.org/2000/svg" width="64" height="64" viewBox="0 0 64 64">
 <g stroke="#493B35" stroke-width="2" stroke-linejoin="round">
  <path d="m15 10 32-2c4 0 6 2 6 6v39l-35 3c-5 0-8-3-8-7V16c0-3 2-6 5-6Z" fill="#DDE4D7"/>
  <path d="m18 16 34-2v35l-34 3Z" fill="#FFFCF7"/>
  <path d="M18 11v40c0 2 2 3 4 3" fill="none" stroke="#AA9180" stroke-width="1.5"/>
  <path d="m35 14 1-8 9-1v18l-5-4-5 5Z" fill="#E8D1C8" stroke-width="1.5"/>
 </g>
 <path d="m25 28 18-1m-18 7 13-1m-13 7 17-1" fill="none" stroke="#AA9180" stroke-width="1.5" stroke-linecap="round"/>
 <path d="m6 43 17-3 1 7-16 3Z" fill="#E7D6BD"/>
</svg>
